<svg width="42" height="42" viewBox="0 0 42 42" fill="none" xmlns="http://www.w3.org/2000/svg">
<path fill-rule="evenodd" clip-rule="evenodd" d="M42 21C42 32.598 32.598 42 21 42C9.40202 42 0 32.598 0 21C0 9.40202 9.40202 0 21 0C32.598 0 42 9.40202 42 21ZM21.0175 18.3781L32.0059 29.3665L30.224 31.1484L21.0175 21.9419L11.811 31.1484L10.029 29.3665L21.0175 18.3781ZM31.08 16.8V14.28H10.92V16.8H31.08Z" fill="#A5A5A5" fill-opacity="0.8"/>
<path d="M21.371 18.0245L21.0175 17.671L20.6639 18.0245L9.67549 29.013L9.32194 29.3665L9.67549 29.7201L11.4574 31.502L11.811 31.8555L12.1645 31.502L21.0175 22.649L29.8705 31.502L30.224 31.8555L30.5776 31.502L32.3595 29.7201L32.713 29.3665L32.3595 29.013L21.371 18.0245ZM31.08 17.3H31.58V16.8V14.28V13.78H31.08H10.92H10.42V14.28V16.8V17.3H10.92H31.08ZM41.5 21C41.5 32.3218 32.3218 41.5 21 41.5C9.67816 41.5 0.5 32.3218 0.5 21C0.5 9.67816 9.67816 0.5 21 0.5C32.3218 0.5 41.5 9.67816 41.5 21Z" stroke="url(#paint0_linear_38_585)" stroke-opacity="0.8"/>
<defs>
<linearGradient id="paint0_linear_38_585" x1="8.94445" y1="2.37322e-07" x2="44.7297" y2="20.0132" gradientUnits="userSpaceOnUse">
<stop stop-color="white" stop-opacity="0.8"/>
<stop offset="1" stop-color="#B4B4B4" stop-opacity="0.3"/>
</linearGradient>
</defs>
</svg>
